# xmcd
#
# Track frame offsets:
#	150
#	16114
#	26728
#	36706
#	49150
#	59400
#	76391
#	86449
#	98306
#	108058
#	120250
#	138558
#	152344
#	166163
#	175795
#	188028
#
# Disc length: 2751 seconds
#
# Revision: 1
# Processed by: cddbd v1.5.2PL0 Copyright (c) Steve Scherf et al.
# Submitted via: audiograbber 1.83.01
#
DISCID=b70abd10
DTITLE=Johnny Trouble - Rainy Days
DYEAR=2011
DGENRE=
TTITLE0=Somebody Stole My Guitar
TTITLE1=Mama Tried
TTITLE2=Murder In The First
TTITLE3=King Of The Rail
TTITLE4=Mrs. Spring
TTITLE5=Gone With the Wind
TTITLE6=Ain´t Moving  On No More
TTITLE7=Rainy Days
TTITLE8=Travelling Man
TTITLE9=The Stranger
TTITLE10=Love Kills Slowly
TTITLE11=Small Town Blues
TTITLE12=Tornado Warning
TTITLE13=Weeping Willow
TTITLE14=Drifting Cowboy
TTITLE15=Southbound Train
EXTD=
EXTT0=\n\n
EXTT1=
EXTT2=
EXTT3=
EXTT4=
EXTT5=
EXTT6=
EXTT7=
EXTT8=
EXTT9=
EXTT10=
EXTT11=
EXTT12=
EXTT13=
EXTT14=
EXTT15=
PLAYORDER=
